<?xml version="1.0" encoding="utf-8"?>
<!-- Generator: Adobe Illustrator 15.0.0, SVG Export Plug-In . SVG Version: 6.00 Build 0)  -->
<!DOCTYPE svg PUBLIC "-//W3C//DTD SVG 1.1//EN" "http://www.w3.org/Graphics/SVG/1.1/DTD/svg11.dtd">
<svg version="1.1" id="Ebene_2" xmlns="http://www.w3.org/2000/svg" xmlns:xlink="http://www.w3.org/1999/xlink" x="0px" y="0px"
	 width="32px" height="32px" viewBox="0 0 128 128" enable-background="new 0 0 128 128" xml:space="preserve">
<g>
	<path fill="#404547" d="M64,19c24.813,0,45,20.187,45,45s-20.187,45-45,45c-24.813,0-45-20.188-45-45S39.187,19,64,19 M64,9
		C33.615,9,9,33.615,9,64c0,30.385,24.615,55,55,55c30.384,0,55-24.615,55-55C119,33.615,94.384,9,64,9L64,9z"/>
</g>
<g>
	
		<line fill="none" stroke="#404547" stroke-width="10" stroke-linecap="round" stroke-miterlimit="10" x1="53.631" y1="52.312" x2="37.369" y2="43.194"/>
	
		<line fill="none" stroke="#404547" stroke-width="10" stroke-linecap="round" stroke-miterlimit="10" x1="74.369" y1="52.312" x2="90.631" y2="43.194"/>
</g>
<path fill="none" stroke="#404547" stroke-width="10" stroke-linecap="round" stroke-miterlimit="10" d="M88.275,86.244
	c-13.806-14.91-36.227-14.861-50,0.014"/>
</svg>
