<?xml version="1.0" encoding="utf-8"?>
<!-- Generator: Adobe Illustrator 15.0.0, SVG Export Plug-In . SVG Version: 6.00 Build 0)  -->
<!DOCTYPE svg PUBLIC "-//W3C//DTD SVG 1.1//EN" "http://www.w3.org/Graphics/SVG/1.1/DTD/svg11.dtd">
<svg version="1.1" xmlns="http://www.w3.org/2000/svg" xmlns:xlink="http://www.w3.org/1999/xlink" x="0px" y="0px" width="32px"
	 height="32px" viewBox="0 0 128 128" enable-background="new 0 0 128 128" xml:space="preserve">
<g id="Ebene_4" display="none">
	<linearGradient id="SVGID_1_" gradientUnits="userSpaceOnUse" x1="64.0005" y1="119" x2="64.0005" y2="9.0005">
		<stop  offset="0.3" style="stop-color:#426080"/>
		<stop  offset="1" style="stop-color:#819CBD"/>
	</linearGradient>
	<path display="inline" fill="url(#SVGID_1_)" d="M119,104c0,8.284-6.716,15-15,15H24c-8.284,0-15-6.716-15-15V24
		c0-8.284,6.716-15,15-15h80c8.284,0,15,6.716,15,15V104z"/>
	<g display="inline">
		<path fill="#FFFFFF" d="M40,26.809c7.481-2.382,14.851-3.515,22.336-3.515C79.455,23.294,90,29.755,90,43.248
			c0,7.144-3.515,12.472-12.129,20.634c-7.711,7.373-8.28,10.43-8.28,14.514v1.133H54.74v-1.133c0-7.82,1.473-11.793,8.162-18.82
			c5.557-5.783,8.503-9.524,8.503-13.945c0-6.579-5.218-8.846-13.039-8.846c-5.442,0-11.563,1.361-17.234,4.081L40,26.809z"/>
		<g>
			<path fill="#FFFFFF" d="M71.166,100.311c0,1.234-0.409,2.279-1.23,3.114c-0.831,0.855-1.845,1.284-3.043,1.284h-9.631
				c-1.201,0-2.218-0.44-3.044-1.31c-0.823-0.871-1.235-1.896-1.235-3.089v-9.406c0-1.236,0.412-2.278,1.235-3.116
				c0.826-0.852,1.843-1.27,3.044-1.27h9.631c1.198,0,2.212,0.418,3.043,1.27c0.821,0.838,1.23,1.88,1.23,3.116V100.311z"/>
		</g>
	</g>
</g>
<g id="Ebene_2">
	<g>
		<circle fill="#404547" cx="81.765" cy="50.694" r="10"/>
		<circle fill="#404547" cx="46.235" cy="50.694" r="10"/>
	</g>
	<g>
		<path fill="#404547" d="M64,19c24.813,0,45,20.187,45,45s-20.187,45-45,45c-24.813,0-45-20.188-45-45S39.187,19,64,19 M64,9
			C33.615,9,9,33.615,9,64c0,30.385,24.615,55,55,55c30.384,0,55-24.615,55-55C119,33.615,94.384,9,64,9L64,9z"/>
	</g>
	<path fill="#404547" d="M99.445,72.5c-19.527,38.602-51.312,38.719-70.89,0.032L99.445,72.5z"/>
</g>
</svg>
